<?xml version="1.0" encoding="UTF-8" standalone="yes"?>
<!DOCTYPE svg PUBLIC "-//W3C//DTD SVG 1.1//EN" "http://www.w3.org/Graphics/SVG/1.1/DTD/svg11.dtd">

<svg width="386" height="100" viewBox="0 0 386 100" xmlns="http://www.w3.org/2000/svg" xmlns:xlink="http://www.w3.org/1999/xlink" version="1.1" baseProfile="full">
    <g transform="scale(0.772201,-0.772201) translate(0,-130)">
        <path d="M 81.649039 1.071405 L 82.553939 1.238005 L 83.441239 1.436305 L 84.311039 1.666205 L 85.163239 1.927805 L 85.997839 2.221005 L 86.814839 2.545905 L 87.614339 2.902305 L 88.396239 3.290505 L 89.160439 3.710205 L 89.907239 4.161605 L 90.636339 4.644705 L 91.347939 5.159405 L 92.041939 5.705705 L 92.718339 6.283705 L 93.377139 6.893305 L 93.699939 7.209905 L 93.950139 7.470205 L 94.433239 7.999605 L 94.893039 8.541005 L 95.329739 9.094405 L 95.743139 9.659705 L 96.133339 10.237005 L 96.500439 10.826205 L 96.844239 11.427405 L 97.164839 12.040505 L 97.462239 12.665605 L 97.736539 13.302605 L 97.987539 13.951605 L 98.215339 14.612505 L 98.419939 15.285405 L 98.601339 15.970305 L 98.759539 16.667105 L 98.829939 17.019905 L 98.917139 17.557505 L 99.074639 18.820305 L 99.209639 20.333405 L 99.322139 22.096905 L 99.412139 24.110605 L 99.479639 26.374705 L 99.524639 28.889005 L 99.547139 31.653705 L 99.549939 33.129905 L 99.547139 34.606205 L 99.524639 37.370805 L 99.479639 39.885205 L 99.412139 42.149305 L 99.322139 44.163005 L 99.209639 45.926505 L 99.074639 47.439605 L 98.917139 48.702405 L 98.829939 49.239905 L 98.759539 49.592705 L 98.601339 50.288805 L 98.419939 50.972305 L 98.215339 51.643105 L 97.987539 52.301205 L 97.736539 52.946605 L 97.462239 53.579505 L 97.164839 54.199605 L 96.844239 54.807105 L 96.500439 55.402005 L 96.133339 55.984105 L 95.743139 56.553705 L 95.329739 57.110605 L 94.893039 57.654805 L 94.433239 58.186305 L 93.950139 58.705205 L 93.699939 58.959905 L 93.286639 59.364205 L 92.443539 60.134105 L 91.578739 60.852705 L 90.692039 61.519905 L 89.783639 62.135905 L 88.853439 62.700505 L 87.901339 63.213805 L 86.927539 63.675705 L 85.931939 64.086305 L 84.914539 64.445605 L 83.875239 64.753605 L 82.814239 65.010205 L 81.731439 65.215605 L 80.626839 65.369505 L 79.500439 65.472205 L 78.352239 65.523505 L 77.769939 65.529905 L 77.182239 65.523505 L 76.024139 65.472205 L 74.889339 65.369505 L 73.777739 65.215605 L 72.689239 65.010205 L 71.624039 64.753605 L 70.582039 64.445605 L 69.563139 64.086305 L 68.567539 63.675705 L 67.595139 63.213805 L 66.645939 62.700505 L 65.719839 62.135905 L 64.817039 61.519905 L 63.937439 60.852705 L 63.081039 60.134105 L 62.247839 59.364205 L 61.839939 58.959905 L 61.589739 58.705205 L 61.106639 58.186305 L 60.646839 57.654805 L 60.210239 57.110605 L 59.796739 56.553705 L 59.406539 55.984105 L 59.039539 55.402005 L 58.695639 54.807105 L 58.375039 54.199605 L 58.077639 53.579505 L 57.803439 52.946605 L 57.552339 52.301205 L 57.324539 51.643105 L 57.119939 50.972305 L 56.938539 50.288805 L 56.780339 49.592705 L 56.709939 49.239905 L 56.611839 48.702405 L 56.434639 47.439605 L 56.282839 45.926505 L 56.156239 44.163005 L 56.055039 42.149305 L 55.979039 39.885205 L 55.928439 37.370805 L 55.903139 34.606205 L 55.899939 33.129905 L 55.903139 31.653705 L 55.928439 28.889005 L 55.979039 26.374705 L 56.055039 24.110605 L 56.156239 22.096905 L 56.282839 20.333405 L 56.434639 18.820305 L 56.611839 17.557505 L 56.709939 17.019905 L 56.780339 16.667105 L 56.938539 15.970305 L 57.119939 15.285405 L 57.324539 14.612505 L 57.552339 13.951605 L 57.803439 13.302605 L 58.077639 12.665605 L 58.375039 12.040505 L 58.695639 11.427405 L 59.039539 10.826205 L 59.406539 10.237005 L 59.796739 9.659705 L 60.210239 9.094405 L 60.646839 8.541005 L 61.106639 7.999605 L 61.589739 7.470205 L 61.839939 7.209905 L 62.151239 6.904305 L 62.785439 6.315005 L 63.435139 5.755405 L 64.100339 5.225205 L 64.780939 4.724605 L 65.477039 4.253505 L 66.188639 3.811905 L 66.915639 3.399905 L 67.658139 3.017405 L 68.416139 2.664405 L 69.189539 2.341005 L 69.978439 2.047105 L 70.782839 1.782705 L 71.602639 1.547905 L 72.437939 1.342505 L 73.288739 1.166805 L 73.719939 1.089905 L 73.719939 5.499905 L 73.139839 5.643705 L 72.009239 5.984005 L 70.918039 6.394705 L 69.866139 6.875605 L 68.853639 7.426905 L 67.880539 8.048405 L 66.946739 8.740305 L 66.052339 9.502505 L 65.619939 9.909905 L 65.419739 10.114105 L 65.033039 10.532505 L 64.664539 10.964205 L 64.314439 11.409305 L 63.982539 11.867705 L 63.668939 12.339505 L 63.373639 12.824705 L 63.096639 13.323205 L 62.837839 13.835105 L 62.597439 14.360305 L 62.375239 14.898905 L 62.171339 15.450805 L 61.985639 16.016105 L 61.818339 16.594805 L 61.669239 17.186805 L 61.538439 17.792205 L 61.479939 18.099905 L 61.392739 18.633305 L 61.235239 19.862305 L 61.100239 21.308005 L 60.987739 22.970105 L 60.897739 24.848905 L 60.830239 26.944205 L 60.785239 29.256105 L 60.762739 31.784505 L 60.759939 33.129905 L 60.762739 34.475005 L 60.785239 37.000605 L 60.830239 39.306905 L 60.897739 41.393805 L 60.987739 43.261305 L 61.100239 44.909405 L 61.235239 46.338105 L 61.392739 47.547505 L 61.479939 48.069905 L 61.538439 48.383205 L 61.669239 48.999105 L 61.818339 49.601005 L 61.985639 50.188805 L 62.171339 50.762605 L 62.375239 51.322305 L 62.597439 51.867905 L 62.837839 52.399405 L 63.096639 52.916905 L 63.373639 53.420405 L 63.668939 53.909805 L 63.982539 54.385105 L 64.314439 54.846305 L 64.664539 55.293505 L 65.033039 55.726605 L 65.419739 56.145705 L 65.619939 56.349905 L 65.931539 56.648905 L 66.567839 57.218505 L 67.221739 57.750005 L 67.893239 58.243605 L 68.582339 58.699305 L 69.288939 59.116905 L 70.013139 59.496605 L 70.754939 59.838305 L 71.514339 60.142105 L 72.291239 60.407905 L 73.085839 60.635705 L 73.897939 60.825505 L 74.727639 60.977405 L 75.574839 61.091305 L 76.439739 61.167205 L 77.322139 61.205205 L 77.769939 61.209905 L 78.212239 61.205205 L 79.084139 61.167205 L 79.939139 61.091305 L 80.777239 60.977405 L 81.598439 60.825505 L 82.402839 60.635705 L 83.190339 60.407905 L 83.960939 60.142105 L 84.714739 59.838305 L 85.451639 59.496605 L 86.171639 59.116905 L 86.874739 58.699305 L 87.560939 58.243605 L 88.230339 57.750005 L 88.882839 57.218505 L 89.518439 56.648905 L 89.829939 56.349905 L 90.030139 56.145705 L 90.416839 55.726605 L 90.785339 55.293505 L 91.135439 54.846305 L 91.467339 54.385105 L 91.780939 53.909805 L 92.076239 53.420405 L 92.353339 52.916905 L 92.612039 52.399405 L 92.852539 51.867905 L 93.074739 51.322305 L 93.278639 50.762605 L 93.464239 50.188805 L 93.631539 49.601005 L 93.780639 48.999105 L 93.911439 48.383205 L 93.969939 48.069905 L 94.068039 47.547505 L 94.245239 46.338105 L 94.397139 44.909405 L 94.523639 43.261305 L 94.624939 41.393805 L 94.700839 39.306905 L 94.751439 37.000605 L 94.776739 34.475005 L 94.779939 33.129905 L 94.776739 31.784505 L 94.751439 29.256105 L 94.700839 26.944205 L 94.624939 24.848905 L 94.523639 22.970105 L 94.397139 21.308005 L 94.245239 19.862305 L 94.068039 18.633305 L 93.969939 18.099905 L 93.911439 17.792205 L 93.780639 17.186805 L 93.631539 16.594805 L 93.464239 16.016105 L 93.278639 15.450805 L 93.074739 14.898905 L 92.852539 14.360305 L 92.612039 13.835105 L 92.353339 13.323205 L 92.076239 12.824705 L 91.780939 12.339505 L 91.467339 11.867705 L 91.135439 11.409305 L 90.785339 10.964205 L 90.416839 10.532505 L 90.030139 10.114105 L 89.829939 9.909905 L 89.603539 9.687505 L 89.142339 9.257905 L 88.669839 8.848705 L 88.186039 8.459805 L 87.691039 8.091405 L 87.184839 7.743405 L 86.667339 7.415705 L 86.138539 7.108405 L 85.598539 6.821605 L 85.047339 6.555105 L 84.484839 6.309005 L 83.911039 6.083305 L 83.326039 5.878005 L 82.729839 5.693005 L 82.122339 5.528505 L 81.503539 5.384405 L 81.189939 5.319905 L 81.189939 0.999905 Z M 121.599939 60.849905 L 140.499939 60.849905 L 140.902239 60.846905 L 141.690439 60.822305 L 142.456839 60.773005 L 143.201439 60.699205 L 143.924239 60.600805 L 144.625239 60.477705 L 145.304539 60.330105 L 145.961939 60.157805 L 146.597539 59.960905 L 147.211339 59.739405 L 147.803439 59.493405 L 148.373639 59.222705 L 148.922039 58.927305 L 149.448739 58.607405 L 149.953539 58.262905 L 150.436639 57.893705 L 150.669939 57.699905 L 150.913539 57.483305 L 151.377639 57.032605 L 151.810739 56.558705 L 152.212939 56.061605 L 152.584239 55.541305 L 152.924539 54.997705 L 153.233939 54.431005 L 153.512339 53.841105 L 153.759839 53.228005 L 153.976439 52.591705 L 154.162039 51.932105 L 154.316739 51.249405 L 154.440439 50.543505 L 154.533239 49.814305 L 154.595139 49.062005 L 154.626039 48.286405 L 154.629939 47.889905 L 154.626039 47.487905 L 154.595139 46.701805 L 154.533239 45.939705 L 154.440439 45.201405 L 154.316739 44.487005 L 154.162039 43.796505 L 153.976439 43.130005 L 153.759839 42.487305 L 153.512339 41.868605 L 153.233939 41.273705 L 152.924539 40.702805 L 152.584239 40.155705 L 152.212939 39.632605 L 151.810739 39.133405 L 151.377639 38.658105 L 150.913539 38.206705 L 150.669939 37.989905 L 150.436639 37.796105 L 149.953539 37.427005 L 149.448739 37.082505 L 148.922039 36.762605 L 148.373639 36.467205 L 147.803439 36.196505 L 147.211339 35.950405 L 146.597539 35.729005 L 145.961939 35.532105 L 145.304539 35.359805 L 144.625239 35.212205 L 143.924239 35.089105 L 143.201439 34.990705 L 142.456839 34.916805 L 141.690439 34.867605 L 140.902239 34.843005 L 140.499939 34.839905 L 132.849939 34.839905 L 132.849939 30.519905 L 139.239939 30.519905 L 154.539939 0.999905 L 160.299939 0.999905 L 144.729939 30.609905 L 145.160039 30.686305 L 146.002439 30.858605 L 146.820839 31.056905 L 147.615439 31.281205 L 148.386039 31.531505 L 149.132739 31.807805 L 149.855539 32.110205 L 150.554439 32.438505 L 151.229439 32.792905 L 151.880539 33.173305 L 152.507739 33.579705 L 153.111039 34.012105 L 153.690439 34.470505 L 154.245839 34.955005 L 154.777439 35.465505 L 155.285039 36.001905 L 155.529939 36.279905 L 155.779139 36.563805 L 156.253739 37.147405 L 156.696739 37.752105 L 157.108039 38.377905 L 157.487739 39.024805 L 157.835739 39.692705 L 158.152139 40.381805 L 158.436939 41.092005 L 158.690039 41.823205 L 158.911539 42.575605 L 159.101339 43.349005 L 159.259539 44.143505 L 159.386139 44.959105 L 159.481039 45.795905 L 159.544339 46.653705 L 159.576039 47.532605 L 159.579939 47.979905 L 159.574739 48.482905 L 159.533239 49.468605 L 159.450339 50.427705 L 159.325839 51.360005 L 159.159939 52.265705 L 158.952539 53.144605 L 158.703639 53.996805 L 158.413239 54.822205 L 158.081339 55.621005 L 157.707939 56.393005 L 157.293139 57.138305 L 156.836839 57.856905 L 156.338939 58.548805 L 155.799639 59.213905 L 155.218939 59.852405 L 154.596639 60.464105 L 154.269939 60.759905 L 153.951939 61.031305 L 153.298039 61.548105 L 152.620239 62.030405 L 151.918539 62.478305 L 151.192939 62.891705 L 150.443339 63.270705 L 149.669939 63.615205 L 148.872539 63.925305 L 148.051339 64.201005 L 147.206139 64.442105 L 146.337139 64.648805 L 145.444139 64.821105 L 144.527239 64.958905 L 143.586539 65.062305 L 142.621839 65.131205 L 141.633239 65.165605 L 141.129939 65.169905 L 116.739939 65.169905 L 116.739939 0.999905 L 121.599939 0.999905 Z M 25.021139 28.184705 L 26.064639 28.222705 L 27.082739 28.298605 L 28.075539 28.412505 L 29.043039 28.564405 L 29.985239 28.754205 L 30.902139 28.982005 L 31.793639 29.247805 L 32.659939 29.551605 L 33.500839 29.893305 L 34.316439 30.273005 L 35.106739 30.690605 L 35.871739 31.146305 L 36.611439 31.639805 L 37.325839 32.171405 L 38.014939 32.740905 L 38.349939 33.039905 L 38.693239 33.358505 L 39.347139 34.016605 L 39.957439 34.702805 L 40.524139 35.417205 L 41.047339 36.159705 L 41.526839 36.930305 L 41.962739 37.729105 L 42.355139 38.556005 L 42.703839 39.411005 L 43.009039 40.294105 L 43.270639 41.205305 L 43.488539 42.144705 L 43.662939 43.112205 L 43.793739 44.107805 L 43.880939 45.131605 L 43.924539 46.183505 L 43.929939 46.719905 L 43.924539 47.256405 L 43.880939 48.308305 L 43.793739 49.332105 L 43.662939 50.327705 L 43.488539 51.295205 L 43.270639 52.234605 L 43.009039 53.145805 L 42.703839 54.028905 L 42.355139 54.883905 L 41.962739 55.710805 L 41.526839 56.509605 L 41.047339 57.280205 L 40.524139 58.022705 L 39.957439 58.737105 L 39.347139 59.423305 L 38.693239 60.081405 L 38.349939 60.399905 L 38.014939 60.693405 L 37.325839 61.252405 L 36.611439 61.774105 L 35.871739 62.258605 L 35.106739 62.705805 L 34.316439 63.115705 L 33.500839 63.488305 L 32.659939 63.823705 L 31.793639 64.121805 L 30.902139 64.382705 L 29.985239 64.606305 L 29.043039 64.792605 L 28.075539 64.941705 L 27.082739 65.053505 L 26.064639 65.128005 L 25.021139 65.165305 L 24.489939 65.169905 L 8.916339 65.169905 L 6.365839 60.849905 L 23.949939 60.849905 L 24.385639 60.846505 L 25.238539 60.819105 L 26.066839 60.764305 L 26.870439 60.682005 L 27.649539 60.572305 L 28.403939 60.435205 L 29.133839 60.270705 L 29.839039 60.078705 L 30.519639 59.859305 L 31.175739 59.612505 L 31.807139 59.338305 L 32.413939 59.036705 L 32.996139 58.707605 L 33.553639 58.351105 L 34.086639 57.967205 L 34.595039 57.555905 L 34.839939 57.339905 L 35.100239 57.111605 L 35.595939 56.634905 L 36.058539 56.131405 L 36.488139 55.601305 L 36.884739 55.044405 L 37.248239 54.460805 L 37.578739 53.850505 L 37.876139 53.213505 L 38.140539 52.549705 L 38.371839 51.859305 L 38.570139 51.142105 L 38.735339 50.398205 L 38.867539 49.627505 L 38.966639 48.830205 L 39.032739 48.006105 L 39.065839 47.155405 L 39.069939 46.719905 L 39.065839 46.284405 L 39.032739 45.433005 L 38.966639 44.607505 L 38.867539 43.808005 L 38.735339 43.034605 L 38.570139 42.287205 L 38.371839 41.565805 L 38.140539 40.870405 L 37.876139 40.201005 L 37.578739 39.557705 L 37.248239 38.940305 L 36.884739 38.349005 L 36.488139 37.783705 L 36.058539 37.244405 L 35.595939 36.731105 L 35.100239 36.243805 L 34.839939 36.009905 L 34.595039 35.799505 L 34.086639 35.398805 L 33.553639 35.024705 L 32.996139 34.677305 L 32.413939 34.356705 L 31.807139 34.062805 L 31.175739 33.795605 L 30.519639 33.555205 L 29.839039 33.341405 L 29.133839 33.154405 L 28.403939 32.994105 L 27.649539 32.860505 L 26.870439 32.753605 L 26.066839 32.673405 L 25.238539 32.620005 L 24.385639 32.593305 L 23.949939 32.589905 L 17.199939 32.589905 L 17.199939 28.179905 L 24.489939 28.179905 Z M 180.819939 56.709905 L 217.809939 0.999905 L 222.669939 0.999905 L 222.669939 65.079905 L 217.809939 65.079905 L 217.809939 9.549905 L 180.819939 65.079905 L 175.959939 65.079905 L 175.959939 0.999905 L 180.819939 0.999905 Z M 5.859939 28.179905 L 5.949939 28.179905 L 5.949939 32.589905 L 5.859939 32.589905 L 5.859939 59.993005 L 0.999939 51.761405 L 0.999939 14.768305 L 5.859939 6.536605 Z" transform="scale(1.000000,1.000000) translate(246.243361,31.735395)" fill="#ffffff" opacity="1.000000"></path>
        <path d="M 80.208969 1.071405 L 81.113969 1.238005 L 82.001269 1.436305 L 82.871069 1.666205 L 83.723269 1.927805 L 84.557869 2.221005 L 85.374869 2.545905 L 86.174269 2.902305 L 86.956169 3.290505 L 87.720469 3.710205 L 88.467169 4.161605 L 89.196369 4.644705 L 89.907869 5.159405 L 90.601869 5.705705 L 91.278269 6.283705 L 91.937169 6.893305 L 92.259969 7.209905 L 92.510169 7.470205 L 92.993269 7.999605 L 93.453069 8.541005 L 93.889669 9.094405 L 94.303169 9.659705 L 94.693369 10.237005 L 95.060369 10.826205 L 95.404269 11.427405 L 95.724869 12.040505 L 96.022269 12.665605 L 96.296469 13.302605 L 96.547469 13.951605 L 96.775369 14.612505 L 96.979969 15.285405 L 97.161369 15.970305 L 97.319569 16.667105 L 97.389969 17.019905 L 97.477169 17.557505 L 97.634669 18.820305 L 97.769669 20.333405 L 97.882169 22.096905 L 97.972169 24.110605 L 98.039669 26.374705 L 98.084669 28.889005 L 98.107169 31.653705 L 98.109969 33.129905 L 98.107169 34.606205 L 98.084669 37.370805 L 98.039669 39.885205 L 97.972169 42.149305 L 97.882169 44.163005 L 97.769669 45.926505 L 97.634669 47.439605 L 97.477169 48.702405 L 97.389969 49.239905 L 97.319569 49.592705 L 97.161369 50.288805 L 96.979969 50.972305 L 96.775369 51.643105 L 96.547469 52.301205 L 96.296469 52.946605 L 96.022269 53.579505 L 95.724869 54.199605 L 95.404269 54.807105 L 95.060369 55.402005 L 94.693369 55.984105 L 94.303169 56.553705 L 93.889669 57.110605 L 93.453069 57.654805 L 92.993269 58.186305 L 92.510169 58.705205 L 92.259969 58.959905 L 91.846569 59.364205 L 91.003569 60.134105 L 90.138669 60.852705 L 89.252069 61.519905 L 88.343669 62.135905 L 87.413369 62.700505 L 86.461369 63.213805 L 85.487569 63.675705 L 84.491869 64.086305 L 83.474469 64.445605 L 82.435269 64.753605 L 81.374269 65.010205 L 80.291469 65.215605 L 79.186869 65.369505 L 78.060469 65.472205 L 76.912269 65.523505 L 76.329969 65.529905 L 75.742269 65.523505 L 74.584169 65.472205 L 73.449369 65.369505 L 72.337669 65.215605 L 71.249269 65.010205 L 70.184069 64.753605 L 69.141969 64.445605 L 68.123169 64.086305 L 67.127569 63.675705 L 66.155069 63.213805 L 65.205869 62.700505 L 64.279869 62.135905 L 63.377069 61.519905 L 62.497469 60.852705 L 61.641069 60.134105 L 60.807869 59.364205 L 60.399969 58.959905 L 60.149769 58.705205 L 59.666669 58.186305 L 59.206869 57.654805 L 58.770169 57.110605 L 58.356769 56.553705 L 57.966569 55.984105 L 57.599469 55.402005 L 57.255669 54.807105 L 56.935069 54.199605 L 56.637569 53.579505 L 56.363369 52.946605 L 56.112369 52.301205 L 55.884569 51.643105 L 55.679969 50.972305 L 55.498569 50.288805 L 55.340369 49.592705 L 55.269969 49.239905 L 55.171869 48.702405 L 54.994669 47.439605 L 54.842769 45.926505 L 54.716269 44.163005 L 54.614969 42.149305 L 54.539069 39.885205 L 54.488469 37.370805 L 54.463069 34.606205 L 54.459969 33.129905 L 54.463069 31.653705 L 54.488469 28.889005 L 54.539069 26.374705 L 54.614969 24.110605 L 54.716269 22.096905 L 54.842769 20.333405 L 54.994669 18.820305 L 55.171869 17.557505 L 55.269969 17.019905 L 55.340369 16.667105 L 55.498569 15.970305 L 55.679969 15.285405 L 55.884569 14.612505 L 56.112369 13.951605 L 56.363369 13.302605 L 56.637569 12.665605 L 56.935069 12.040505 L 57.255669 11.427405 L 57.599469 10.826205 L 57.966569 10.237005 L 58.356769 9.659705 L 58.770169 9.094405 L 59.206869 8.541005 L 59.666669 7.999605 L 60.149769 7.470205 L 60.399969 7.209905 L 60.711269 6.904305 L 61.345469 6.315005 L 61.995169 5.755405 L 62.660369 5.225205 L 63.340969 4.724605 L 64.037069 4.253505 L 64.748569 3.811905 L 65.475669 3.399905 L 66.218169 3.017405 L 66.976069 2.664405 L 67.749569 2.341005 L 68.538469 2.047105 L 69.342869 1.782705 L 70.162669 1.547905 L 70.997969 1.342505 L 71.848769 1.166805 L 72.279969 1.089905 L 72.279969 5.499905 L 71.699869 5.643705 L 70.569269 5.984005 L 69.477969 6.394705 L 68.426169 6.875605 L 67.413669 7.426905 L 66.440469 8.048405 L 65.506769 8.740305 L 64.612369 9.502505 L 64.179969 9.909905 L 63.979769 10.114105 L 63.592969 10.532505 L 63.224569 10.964205 L 62.874469 11.409305 L 62.542569 11.867705 L 62.228969 12.339505 L 61.933669 12.824705 L 61.656569 13.323205 L 61.397869 13.835105 L 61.157369 14.360305 L 60.935169 14.898905 L 60.731269 15.450805 L 60.545669 16.016105 L 60.378369 16.594805 L 60.229269 17.186805 L 60.098469 17.792205 L 60.039969 18.099905 L 59.952769 18.633305 L 59.795269 19.862305 L 59.660269 21.308005 L 59.547769 22.970105 L 59.457769 24.848905 L 59.390269 26.944205 L 59.345269 29.256105 L 59.322769 31.784505 L 59.319969 33.129905 L 59.322769 34.475005 L 59.345269 37.000605 L 59.390269 39.306905 L 59.457769 41.393805 L 59.547769 43.261305 L 59.660269 44.909405 L 59.795269 46.338105 L 59.952769 47.547505 L 60.039969 48.069905 L 60.098469 48.383205 L 60.229269 48.999105 L 60.378369 49.601005 L 60.545669 50.188805 L 60.731269 50.762605 L 60.935169 51.322305 L 61.157369 51.867905 L 61.397869 52.399405 L 61.656569 52.916905 L 61.933669 53.420405 L 62.228969 53.909805 L 62.542569 54.385105 L 62.874469 54.846305 L 63.224569 55.293505 L 63.592969 55.726605 L 63.979769 56.145705 L 64.179969 56.349905 L 64.491569 56.648905 L 65.127869 57.218505 L 65.781769 57.750005 L 66.453269 58.243605 L 67.142269 58.699305 L 67.848969 59.116905 L 68.573169 59.496605 L 69.314969 59.838305 L 70.074369 60.142105 L 70.851269 60.407905 L 71.645769 60.635705 L 72.457969 60.825505 L 73.287569 60.977405 L 74.134869 61.091305 L 74.999769 61.167205 L 75.882169 61.205205 L 76.329969 61.209905 L 76.772169 61.205205 L 77.644069 61.167205 L 78.499069 61.091305 L 79.337169 60.977405 L 80.158469 60.825505 L 80.962869 60.635705 L 81.750369 60.407905 L 82.520969 60.142105 L 83.274669 59.838305 L 84.011569 59.496605 L 84.731569 59.116905 L 85.434669 58.699305 L 86.120969 58.243605 L 86.790369 57.750005 L 87.442869 57.218505 L 88.078469 56.648905 L 88.389969 56.349905 L 88.590169 56.145705 L 88.976869 55.726605 L 89.345369 55.293505 L 89.695469 54.846305 L 90.027369 54.385105 L 90.340969 53.909805 L 90.636269 53.420405 L 90.913269 52.916905 L 91.172069 52.399405 L 91.412469 51.867905 L 91.634669 51.322305 L 91.838569 50.762605 L 92.024269 50.188805 L 92.191569 49.601005 L 92.340669 48.999105 L 92.471369 48.383205 L 92.529969 48.069905 L 92.628069 47.547505 L 92.805269 46.338105 L 92.957069 44.909405 L 93.083669 43.261305 L 93.184869 41.393805 L 93.260869 39.306905 L 93.311469 37.000605 L 93.336769 34.475005 L 93.339969 33.129905 L 93.336769 31.784505 L 93.311469 29.256105 L 93.260869 26.944205 L 93.184869 24.848905 L 93.083669 22.970105 L 92.957069 21.308005 L 92.805269 19.862305 L 92.628069 18.633305 L 92.529969 18.099905 L 92.471369 17.792205 L 92.340669 17.186805 L 92.191569 16.594805 L 92.024269 16.016105 L 91.838569 15.450805 L 91.634669 14.898905 L 91.412469 14.360305 L 91.172069 13.835105 L 90.913269 13.323205 L 90.636269 12.824705 L 90.340969 12.339505 L 90.027369 11.867705 L 89.695469 11.409305 L 89.345369 10.964205 L 88.976869 10.532505 L 88.590169 10.114105 L 88.389969 9.909905 L 88.163569 9.687505 L 87.702269 9.257905 L 87.229769 8.848705 L 86.746069 8.459805 L 86.251069 8.091405 L 85.744769 7.743405 L 85.227269 7.415705 L 84.698569 7.108405 L 84.158569 6.821605 L 83.607269 6.555105 L 83.044769 6.309005 L 82.471069 6.083305 L 81.886069 5.878005 L 81.289769 5.693005 L 80.682269 5.528505 L 80.063569 5.384405 L 79.749969 5.319905 L 79.749969 0.999905 Z M 24.939969 60.759905 L 44.109969 60.759905 L 44.109969 65.079905 L 0.999969 65.079905 L 0.999969 60.759905 L 20.079969 60.759905 L 20.079969 0.999905 L 24.939969 0.999905 Z M 120.249969 30.069905 L 149.229969 30.069905 L 149.229969 34.389905 L 120.249969 34.389905 L 120.249969 60.759905 L 154.269969 60.759905 L 154.269969 65.079905 L 115.389969 65.079905 L 115.389969 0.999905 L 120.249969 0.999905 Z M 172.089969 14.768505 L 172.089969 51.761305 L 167.229969 59.992905 L 167.229969 6.536905 Z" transform="scale(1.000000,1.000000) translate(30.086931,31.735395)" fill="#ffffff" opacity="1.000000"></path>
        <path d="M 72.083492 33.265000 L 53.034123 65.530000 L 91.132861 130.060000 L 77.197475 130.060000 L 46.066430 77.331578 L 33.984754 97.795000 L 20.049369 97.795000 L 39.098738 65.530000 L 1.000000 1.000000 L 14.935386 1.000000 L 46.066430 53.728422 L 58.148107 33.265000 Z" transform="scale(1.000000,1.000000) translate(178.643716,-0.529605)" fill="#bb39a2" opacity="1.000000"></path>
    </g>
</svg>